<?xml version="1.0" encoding="UTF-8" standalone="no"?>
<!-- Created with Inkscape (http://www.inkscape.org/) -->

<svg
   xmlns:dc="http://purl.org/dc/elements/1.1/"
   xmlns:cc="http://creativecommons.org/ns#"
   xmlns:rdf="http://www.w3.org/1999/02/22-rdf-syntax-ns#"
   xmlns:svg="http://www.w3.org/2000/svg"
   xmlns="http://www.w3.org/2000/svg"
   xmlns:sodipodi="http://sodipodi.sourceforge.net/DTD/sodipodi-0.dtd"
   xmlns:inkscape="http://www.inkscape.org/namespaces/inkscape"
   width="77.785332mm"
   height="18.404427mm"
   viewBox="0 0 77.785332 18.404427"
   version="1.1"
   id="svg8"
   inkscape:version="0.92.4 (33fec40, 2019-01-16)"
   sodipodi:docname="cr_title-black.svg">
  <defs
     id="defs2">
    <style
       id="style815">.cls-1{fill:#658618;}.cls-1,.cls-2,.cls-3,.cls-4{fill-rule:evenodd;}.cls-2{fill:#cfae7f;}.cls-3,.cls-5{fill:#4c3f38;}.cls-4{fill:#e6e6d7;}</style>
  </defs>
  <sodipodi:namedview
     id="base"
     pagecolor="#ffffff"
     bordercolor="#666666"
     borderopacity="1.0"
     inkscape:pageopacity="0.0"
     inkscape:pageshadow="2"
     inkscape:zoom="1.4"
     inkscape:cx="66.363268"
     inkscape:cy="168.33219"
     inkscape:document-units="mm"
     inkscape:current-layer="layer1"
     showgrid="false"
     fit-margin-top="0"
     fit-margin-left="0"
     fit-margin-right="0"
     fit-margin-bottom="0"
     inkscape:window-width="1920"
     inkscape:window-height="1025"
     inkscape:window-x="1920"
     inkscape:window-y="27"
     inkscape:window-maximized="1" />
  <metadata
     id="metadata5">
    <rdf:RDF>
      <cc:Work
         rdf:about="">
        <dc:format>image/svg+xml</dc:format>
        <dc:type
           rdf:resource="http://purl.org/dc/dcmitype/StillImage" />
        <dc:title></dc:title>
      </cc:Work>
    </rdf:RDF>
  </metadata>
  <g
     inkscape:label="Layer 1"
     inkscape:groupmode="layer"
     id="layer1"
     transform="translate(-59.192156,-133.24805)">
    <g
       data-name="Layer 2"
       id="Layer_2"
       transform="matrix(0.26458333,0,0,0.26458333,59.192156,79.86836)"
       style="fill:#000001;fill-opacity:1">
      <g
         data-name="1"
         id="_1"
         style="fill:#000001;fill-opacity:1">
        <path
           id="path841"
           d="m 31.45,231.89 c 0,0.07 -0.12,0.23 -0.41,0.48 a 16.33,16.33 0 0 1 -6.21,3.14 32,32 0 0 1 -8.57,1.08 19.48,19.48 0 0 1 -5.58,-0.74 15.18,15.18 0 0 1 -6.48,-3.32 Q 0,228.71 0,221 a 17.64,17.64 0 0 1 2.35,-8.66 16.19,16.19 0 0 1 5.83,-5.93 21.36,21.36 0 0 1 11.51,-3.14 33.15,33.15 0 0 1 7.24,0.83 13.68,13.68 0 0 1 3.54,1.27 c 0.08,0 0.11,0.14 0.1,0.29 -0.2,1.37 -0.39,2.68 -0.6,3.92 -0.09,0.62 -0.2,1.39 -0.33,2.29 0,0.37 -0.17,0.52 -0.38,0.46 -0.21,-0.06 -0.4,-0.09 -0.4,-0.26 a 4.43,4.43 0 0 0 -0.15,-1 9.85,9.85 0 0 0 -0.52,-1.22 4.85,4.85 0 0 0 -1,-1.17 11.55,11.55 0 0 0 -7.94,-3.14 q -6.27,0 -9.62,3.63 a 15.68,15.68 0 0 0 -4,11.06 q 0,7.35 4.23,11.43 3.09,3 8.9,3 a 15.43,15.43 0 0 0 5.89,-1.27 8.28,8.28 0 0 0 3.35,-2.57 6,6 0 0 0 0.74,-1.56 8.39,8.39 0 0 0 0.43,-1.5 c 0,-0.29 0.16,-0.43 0.41,-0.43 a 0.32,0.32 0 0 1 0.33,0.21 8.3,8.3 0 0 0 0.55,1.46 q 0.22,0.5 1,2.89 z m 34.88,4 c 0,0.16 0,0.24 -0.15,0.24 H 54.46 c -0.1,0 -0.15,-0.1 -0.15,-0.29 v -0.93 c 0,-0.24 0.11,-0.36 0.32,-0.36 h 2.87 c 0.24,0 0.34,-0.15 0.31,-0.43 a 1.76,1.76 0 0 1 0,-0.2 c -0.09,-0.32 -0.62,-1.83 -1.58,-4.54 -0.96,-2.71 -1.57,-4.3 -1.67,-4.52 -0.1,-0.22 -0.29,-0.5 -0.53,-0.5 H 42.57 a 0.57,0.57 0 0 0 -0.41,0.31 q -1.2,3.42 -2,6.05 a 14.81,14.81 0 0 0 -0.72,3.06 c 0,0.51 0.17,0.77 0.43,0.77 h 3.63 c 0.2,0 0.29,0.11 0.29,0.36 v 1 a 0.21,0.21 0 0 1 -0.24,0.24 H 33.41 c -0.18,0 -0.26,-0.08 -0.26,-0.24 v -1.08 c 0,-0.18 0.07,-0.26 0.21,-0.26 h 1.8 c 0.3,0 0.7,-0.47 1.19,-1.41 l 5.76,-13.52 q 5.49,-12.51 6.22,-14.06 a 25.43,25.43 0 0 0 1,-2.34 c 0.2,-0.53 0.39,-0.81 0.55,-0.84 0.8,-0.12 1.75,-0.31 2.85,-0.55 a 1.84,1.84 0 0 1 0.33,-0.1 0.49,0.49 0 0 1 0.36,0.19 0.67,0.67 0 0 1 0.16,0.46 c -0.07,0.11 -0.16,0.21 -0.22,0.3 l -0.49,0.63 a 1.79,1.79 0 0 0 -0.46,1 9.65,9.65 0 0 0 0.36,1.82 66.65,66.65 0 0 0 2.39,6.66 q 0.33,0.83 3,8.37 2.49,6.93 4.3,10.69 c 0.88,1.79 1.5,2.69 1.87,2.69 h 1.72 c 0.12,0 0.19,0.11 0.19,0.36 v 1 z M 53.48,222.32 c -0.2,-0.58 -0.94,-2.67 -2.25,-6.27 q -0.86,-2.73 -1.81,-5.72 c -0.16,-0.56 -0.35,-0.84 -0.58,-0.84 -0.23,0 -0.43,0.28 -0.65,0.84 l -2,4.9 -2.94,6.94 a 1.9,1.9 0 0 0 -0.1,0.38 q 0,0.12 0.2,0.12 h 10 c 0.15,0 0.18,-0.12 0.1,-0.36 z m 57.92,13.59 c 0,0.16 -0.11,0.24 -0.31,0.24 H 99.63 c -0.23,0 -0.33,-0.08 -0.33,-0.24 v -1.08 c 0,-0.18 0.07,-0.26 0.24,-0.26 h 2.16 a 0.52,0.52 0 0 0 0.6,-0.58 v -12.15 c 0,-4.61 -0.07,-8 -0.2,-10.09 0,-0.45 -0.11,-0.67 -0.24,-0.67 -0.13,0 -0.21,0.14 -0.36,0.42 q -1.24,2.47 -9.21,19.65 c -1.15,2.47 -1.93,4.23 -2.34,5.28 a 0.72,0.72 0 0 1 -0.74,0.41 0.8,0.8 0 0 1 -0.78,-0.36 q -6,-11.39 -7.15,-14 -2,-3.9 -5.14,-10.6 c -0.11,-0.25 -0.24,-0.38 -0.36,-0.38 -0.12,0 -0.26,0.16 -0.29,0.48 q -0.34,5.14 -0.33,13.28 v 5.1 c 0,2.81 0.38,4.21 1.17,4.21 h 2.42 c 0.16,0 0.24,0.07 0.24,0.21 v 1.13 c 0,0.16 0,0.24 -0.14,0.24 H 69.7 c -0.19,0 -0.29,-0.07 -0.29,-0.19 v -1 c 0,-0.24 0.08,-0.36 0.24,-0.36 h 2.43 c 0.43,0 0.65,-0.36 0.65,-1.08 q 0,-2 0.38,-13.38 0.17,-2.87 0.41,-9.93 0,-3.54 -2.51,-4.66 a 6.65,6.65 0 0 0 -2.11,-0.38 0.2,0.2 0 0 1 -0.2,-0.21 v -1 a 0.17,0.17 0 0 1 0.2,-0.2 h 8.23 a 0.64,0.64 0 0 1 0.6,0.36 q 1.31,2.43 4.35,8.66 0.65,1.31 4.19,8.16 3.71,7.18 4.12,7.85 c 0.28,0.44 0.5,0.51 0.66,0.21 l 5.67,-12.2 q 2.92,-6.2 6,-12.58 a 0.94,0.94 0 0 1 0.79,-0.46 h 6.56 c 0.2,0 0.31,0.07 0.31,0.2 V 205 c 0,0.16 -0.07,0.24 -0.21,0.24 h -1.8 c -0.53,0 -0.84,0.52 -0.93,1.58 -0.09,1.06 -0.15,4.87 -0.15,11.46 q 0,7.61 0.15,10.91 c 0.16,3.56 0.66,5.34 1.5,5.34 h 2.2 a 0.23,0.23 0 0 1 0.26,0.26 v 1.08 z m 28.42,-8.23 a 7.65,7.65 0 0 1 -2.85,6.12 q -3.16,2.63 -8.73,2.63 c -0.38,0 -1.75,0 -4.09,-0.14 -2.34,-0.14 -4.06,-0.15 -5.12,-0.15 h -3.85 c -0.15,0 -0.21,-0.07 -0.21,-0.19 v -1.13 c 0,-0.18 0.07,-0.26 0.21,-0.26 h 3.52 c 0.39,0 0.6,-0.28 0.6,-0.82 q 0,-0.28 -0.1,-7.15 c -0.07,-4.58 -0.1,-7.1 -0.1,-7.56 v -9.35 c -0.14,-2.94 -0.47,-4.4 -1,-4.4 h -3.8 q -0.2,0 -0.2,-0.24 v -1.14 c 0,-0.13 0.08,-0.2 0.24,-0.2 h 8 l 2.65,-0.07 2.78,-0.07 h 2.39 a 10.4,10.4 0 0 1 3.3,0.55 8.4,8.4 0 0 1 2.78,1.75 6.56,6.56 0 0 1 2,4.81 7.71,7.71 0 0 1 -2.06,5.14 13.24,13.24 0 0 1 -3.92,3.09 c -0.16,0.07 -0.07,0.14 0.26,0.24 a 13,13 0 0 1 4.9,2.65 7.31,7.31 0 0 1 2.35,5.89 z m -6.22,-15.1 a 7.27,7.27 0 0 0 -2.25,-5.33 8.16,8.16 0 0 0 -5.69,-2.06 5.82,5.82 0 0 0 -1.13,0 q -0.33,0 -0.39,0.56 -0.06,0.56 -0.06,12 c 0,0.19 0.06,0.29 0.16,0.29 h 0.46 c 0.35,0 0.88,0 1.6,0 a 26,26 0 0 1 3.8,0.31 1.08,1.08 0 0 0 0.79,-0.21 6.36,6.36 0 0 0 1.77,-2 7.51,7.51 0 0 0 0.93,-3.62 z m 0.93,15.72 a 7.59,7.59 0 0 0 -2.37,-5.86 9.67,9.67 0 0 0 -6.89,-2.56 2.14,2.14 0 0 0 -0.88,0.14 c -0.07,0 -0.1,0.2 -0.1,0.51 q 0,8.46 0,10.24 c 0.07,2.21 0.24,3.4 0.52,3.56 a 6.08,6.08 0 0 0 2.9,0.56 6.9,6.9 0 0 0 4.66,-1.49 6.31,6.31 0 0 0 2.11,-5.1 z m 41.15,7.56 c 0,0.19 -0.07,0.29 -0.21,0.29 H 167 a 1.5,1.5 0 0 1 -0.94,-0.29 74.19,74.19 0 0 1 -6.21,-7.51 33.81,33.81 0 0 1 -3.88,-6.41 c -0.11,-0.26 -0.24,-0.38 -0.38,-0.38 l -3.27,-0.31 c -0.27,0 -0.41,0.09 -0.41,0.36 0,-0.29 0,0.45 0,2.22 0,1.77 0,3.61 0,5.5 q 0,5.24 1.13,5.24 h 3.92 a 0.23,0.23 0 0 1 0.26,0.26 v 1.08 c 0,0.16 -0.07,0.24 -0.21,0.24 h -13.34 c -0.22,0 -0.33,-0.08 -0.33,-0.24 v -1 c 0,-0.21 0.1,-0.31 0.29,-0.31 h 2.8 c 0.29,0 0.43,-0.25 0.43,-0.72 v -22 q 0,-6.45 -0.87,-6.46 h -2.75 A 0.21,0.21 0 0 1 143,205.18 v -1.08 c 0,-0.16 0.07,-0.24 0.2,-0.26 l 7.53,-0.19 c 2.52,-0.07 4.42,-0.1 5.7,-0.1 a 26.32,26.32 0 0 1 3.42,0.19 11.06,11.06 0 0 1 5.83,2.51 7.13,7.13 0 0 1 2.64,5.62 8.66,8.66 0 0 1 -2.59,6.37 12.47,12.47 0 0 1 -4.61,2.6 0.23,0.23 0 0 0 -0.15,0.29 35.13,35.13 0 0 0 5,6.82 c 1.48,1.58 2.47,2.62 3,3.14 a 20,20 0 0 0 2.78,2.39 6,6 0 0 0 3.56,1.13 c 0.3,0 0.46,0.1 0.46,0.31 v 1 z m -12.61,-22.75 a 6.86,6.86 0 0 0 -2.11,-5.19 q -2.77,-2.63 -8.13,-2.63 c -0.55,0 -0.87,0.16 -0.93,0.47 q 0,6.58 -0.1,8.28 v 5.1 a 0.42,0.42 0 0 0 0.36,0.46 16.51,16.51 0 0 0 2.68,0.09 15.67,15.67 0 0 0 3.54,-0.4 5.83,5.83 0 0 0 4.69,-6.17 z M 191.54,236 a 0.17,0.17 0 0 1 -0.2,0.19 H 179.1 c -0.22,0 -0.33,-0.08 -0.33,-0.24 v -1 c 0,-0.21 0.1,-0.31 0.29,-0.31 h 2.75 c 0.23,0 0.33,-0.23 0.33,-0.67 q 0,-0.24 0,-12 0,-11.76 0,-12.09 0,-4.5 -0.88,-4.49 h -2.54 c -0.24,0 -0.36,-0.08 -0.36,-0.24 v -1.25 q 0,-0.2 0.24,-0.2 h 12.3 c 0.14,0 0.21,0.07 0.21,0.2 v 1.19 c 0,0.13 -0.09,0.2 -0.26,0.2 h -2.87 c -0.3,0 -0.46,0.11 -0.46,0.33 0,0.22 0,3.69 0,10.79 0,7.1 0,10.88 0,11.37 0,2.25 0,3.56 0,3.94 0.11,1.89 0.44,2.85 1,2.85 h 2.84 c 0.16,0 0.24,0.07 0.24,0.21 V 236 Z m 35.81,-16.32 q 0,9.91 -7.29,14.36 a 15.93,15.93 0 0 1 -6,2.11 46.3,46.3 0 0 1 -6.08,0.29 c -1.22,0 -2.81,0 -4.74,-0.11 -1.93,-0.11 -3.54,-0.12 -4.8,-0.12 h -2.79 c -0.15,0 -0.23,0 -0.25,-0.07 a 0.36,0.36 0 0 1 0,-0.16 v -1.08 c 0,-0.18 0.09,-0.26 0.29,-0.26 h 3.54 c 0.26,0 0.38,-0.25 0.38,-0.72 0,-0.24 0,-2.29 0,-6.17 0,-3.88 0,-6 0,-6.33 0,-0.33 0,-2.25 0,-5.62 0,-3.37 0,-5.19 0,-5.45 q 0,-5 -0.93,-5 h -3.63 a 0.22,0.22 0 0 1 -0.24,-0.24 V 204 a 0.28,0.28 0 0 1 0,-0.18 c 0,0 0.11,-0.07 0.24,-0.07 h 15.85 a 21.32,21.32 0 0 1 6.39,0.92 15.17,15.17 0 0 1 5.61,3.33 q 4.46,4 4.45,11.67 z m -5.19,2.85 a 22.28,22.28 0 0 0 -0.69,-6 17.26,17.26 0 0 0 -2.83,-5.43 13.76,13.76 0 0 0 -5.55,-4.35 15.24,15.24 0 0 0 -6.21,-1.41 9.41,9.41 0 0 0 -1.72,0.14 c -0.35,0.08 -0.53,0.39 -0.53,0.94 q 0,0.36 0,5.83 0,5.47 0,6.22 V 228 c 0,4.13 0.27,6.25 0.79,6.36 a 31.86,31.86 0 0 0 6,0.36 c 3.32,0 5.78,-0.82 7.4,-2.46 q 3.37,-3.43 3.37,-9.74 z m 43.11,-0.6 a 0.25,0.25 0 0 1 -0.29,0.29 h -3.08 c -0.19,0 -0.29,0.11 -0.29,0.31 0,-0.11 0,0.48 0,1.77 0,1.29 0,2.45 0,3.47 q 0,3.61 0.15,4.95 a 0.39,0.39 0 0 1 -0.36,0.43 l -2.87,1.22 a 30.47,30.47 0 0 1 -10.4,2.16 22.12,22.12 0 0 1 -7.72,-1.18 14,14 0 0 1 -6.53,-4.8 q -2.44,-3.36 -2.44,-9.64 a 17.06,17.06 0 0 1 4.21,-11.42 17.78,17.78 0 0 1 9.16,-5.33 26.74,26.74 0 0 1 6.87,-0.74 25.63,25.63 0 0 1 7.58,0.94 23.57,23.57 0 0 1 2.52,0.88 c 0.22,0.1 0.32,0.22 0.29,0.38 -0.16,0.79 -0.34,1.73 -0.55,2.8 -0.21,1.07 -0.37,2 -0.62,3.18 a 0.23,0.23 0 0 1 -0.24,0.2 c -0.3,0 -0.45,-0.08 -0.45,-0.24 0,-0.16 -0.11,-0.54 -0.33,-1.53 a 3.55,3.55 0 0 0 -1.22,-2 q -3.47,-2.78 -9.37,-2.78 a 12.14,12.14 0 0 0 -9.21,4.4 q -3.09,3.42 -3.09,10.34 0,7.19 3.54,10.79 3.86,3.92 10.34,3.92 c 2.52,0 4.34,-0.77 5.48,-2.32 a 1.16,1.16 0 0 0 0.21,-0.77 v -3.35 c 0,-1.51 0,-2.57 -0.07,-3.18 -0.1,-1.94 -0.26,-2.9 -0.48,-2.9 H 251 c -0.19,0 -0.29,-0.15 -0.29,-0.43 V 221 a 0.29,0.29 0 0 1 0.33,-0.33 h 3.27 3.65 3.68 3.27 c 0.26,0 0.38,0.09 0.38,0.29 v 1 z M 293.93,232 q -1,1.75 -2.25,3.88 a 0.63,0.63 0 0 1 -0.56,0.29 h -23.74 c -0.16,0 -0.24,-0.1 -0.24,-0.29 v -1 c 0,-0.18 0.07,-0.26 0.19,-0.26 h 3.73 c 0.21,0 0.34,0 0.4,-0.11 a 0.6,0.6 0 0 0 0.08,-0.37 q 0,-0.22 0,-7.21 c 0,-4.67 0,-7.07 0,-7.23 0,-0.16 0,-1.73 0,-4.74 0,-3.01 0,-4.6 0,-4.78 q 0,-4.85 -1,-4.85 h -3 a 0.21,0.21 0 0 1 -0.24,-0.24 V 204 a 0.28,0.28 0 0 1 0,-0.18 c 0,0 0.11,-0.07 0.24,-0.07 h 22.49 c 0.3,0 0.73,0 1.27,0 h 0.79 c 0.2,0 0.29,0.07 0.24,0.24 -0.29,1.05 -0.65,2.25 -1.08,3.58 -0.14,0.35 -0.3,0.53 -0.47,0.53 a 4.24,4.24 0 0 0 -0.46,-0.43 5.52,5.52 0 0 0 -2.94,-1.31 62.34,62.34 0 0 0 -10.39,-0.93 c -0.25,0 -0.38,0.09 -0.38,0.29 q -0.09,8.23 -0.09,11.77 c 0,0.32 0.12,0.48 0.38,0.48 h 10.6 c 0.19,0 0.32,-0.13 0.38,-0.38 0.11,-0.85 0.24,-1.78 0.38,-2.8 0,-0.3 0.11,-0.46 0.31,-0.46 h 1 c 0.23,0 0.33,0.14 0.33,0.41 0,0.07 0,0.73 -0.09,2 -0.09,1.27 -0.1,2 -0.1,2.26 0,0.26 0,1.08 0,2.51 0,1.43 0,2.2 0,2.3 0,0.35 -0.11,0.52 -0.31,0.52 h -1 c -0.2,0 -0.29,-0.11 -0.29,-0.33 0,-0.65 -0.1,-1.86 -0.29,-3.63 0,-0.32 -0.18,-0.48 -0.45,-0.48 l -5.32,-0.1 -5.26,-0.09 c -0.2,0 -0.29,0.14 -0.29,0.43 v 9.16 c 0,3.67 0.42,5.5 1.27,5.5 q 10.21,0 14.85,-2.46 l 1.13,-0.58 c 0,0 0.11,0 0.19,0.15 0.08,0.15 0.06,0.02 -0.01,0.1 z"
           class="cls-3"
           inkscape:connector-curvature="0"
           style="fill:#000001;fill-opacity:1;fill-rule:evenodd" />
        <path
           id="path843"
           d="m 90.6,270.66 c 0,0.11 0,0.16 -0.11,0.16 H 86 a 0.57,0.57 0 0 1 -0.34,-0.16 19.36,19.36 0 0 1 -1.92,-2.31 l -1.49,-2 q -0.82,-1.24 -2.28,-3.85 c -0.07,-0.16 -0.14,-0.23 -0.22,-0.23 -0.43,0 -1.19,-0.06 -2.28,-0.16 -0.15,0 -0.22,0 -0.22,0.14 0,0.14 0,0.76 0,1.74 0,0.98 0,2 0,3.11 q 0,3 0.62,3 h 2.44 c 0.09,0 0.14,0 0.14,0.14 v 0.45 c 0,0.09 0,0.14 -0.11,0.14 h -7.23 c -0.08,0 -0.13,0 -0.15,0 a 0.17,0.17 0 0 1 0,-0.09 v -0.43 c 0,-0.08 0,-0.13 0,-0.15 h 0.11 1.8 c 0.15,0 0.22,-0.15 0.22,-0.43 v -13 c 0,-2.52 -0.18,-3.78 -0.48,-3.78 h -1.74 c -0.09,0 -0.14,0 -0.14,-0.11 v -0.51 c 0,-0.07 0,-0.11 0.11,-0.11 H 77 l 1.57,-0.06 1.55,-0.06 a 11.25,11.25 0 0 1 1.74,0.14 5.53,5.53 0 0 1 3,1.42 4.27,4.27 0 0 1 1.35,3.23 5.18,5.18 0 0 1 -1.32,3.65 6.31,6.31 0 0 1 -2.65,1.5 0.14,0.14 0 0 0 -0.08,0.17 15,15 0 0 0 2.84,3.97 q 1.14,1.29 1.66,1.85 a 13.08,13.08 0 0 0 1.57,1.44 3.61,3.61 0 0 0 2.2,0.65 c 0.15,0 0.22,0 0.22,0.11 v 0.43 z m -6.66,-13.12 a 3.94,3.94 0 0 0 -1.21,-3 6.88,6.88 0 0 0 -4.9,-1.54 c -0.31,0 -0.48,0.07 -0.51,0.19 q 0,3.95 -0.06,4.92 v 3.13 c 0,0.1 0.07,0.16 0.19,0.19 a 14.93,14.93 0 0 0 1.74,0.06 8.87,8.87 0 0 0 1.33,-0.11 l 0.67,-0.11 a 3.43,3.43 0 0 0 2.73,-3.7 z m 22.23,11.32 c -0.26,0.52 -0.56,1.12 -0.92,1.8 a 0.34,0.34 0 0 1 -0.29,0.16 H 92 c -0.09,0 -0.14,-0.06 -0.14,-0.16 v -0.43 c 0,-0.09 0,-0.14 0.11,-0.14 h 2 c 0.18,0 0.28,-0.1 0.28,-0.29 0,-0.19 0,-1.49 0,-4.23 0,-2.74 0,-4.14 0,-4.23 0,-0.09 0,-1 0,-2.83 0,-1.83 0,-2.75 0,-2.86 q 0,-2.79 -0.53,-2.79 H 92 a 0.12,0.12 0 0 1 -0.14,-0.14 v -0.45 c 0,-0.09 0.06,-0.14 0.17,-0.14 h 12.3 0.67 0.4 c 0.12,0 0.16,0 0.14,0.14 q -0.19,0.76 -0.48,1.74 c -0.08,0.21 -0.15,0.32 -0.22,0.32 l -0.19,-0.21 a 3.1,3.1 0 0 0 -1.61,-0.7 50.85,50.85 0 0 0 -6.52,-0.33 0.23,0.23 0 0 0 -0.23,0.16 q -0.06,0.17 -0.06,6.81 c 0,0.18 0.08,0.28 0.23,0.28 h 6.72 a 0.21,0.21 0 0 0 0.23,-0.21 c 0,-0.14 0.06,-0.43 0.11,-0.88 0.05,-0.45 0.08,-0.69 0.09,-0.74 0.01,-0.05 0.06,-0.26 0.17,-0.26 h 0.2 c 0.11,0 0.17,0.08 0.17,0.23 0,0.15 0,0.42 -0.06,1.15 -0.06,0.73 -0.06,1.16 -0.06,1.3 0,0.14 0,0.62 0,1.44 0,0.82 0,1.27 0,1.32 0,0.05 -0.05,0.3 -0.15,0.3 h -0.22 c -0.09,0 -0.15,-0.07 -0.16,-0.19 0,-0.59 -0.08,-1.28 -0.14,-2.09 0,-0.18 -0.11,-0.28 -0.26,-0.28 l -3.39,-0.06 -3.33,-0.05 c -0.12,0 -0.18,0.08 -0.18,0.25 v 5.18 q 0,3.3 0.71,3.3 6.43,0 8.55,-1 l 0.61,-0.34 c 0.09,0 0.12,0.06 0.08,0.18 z m 13.26,-3.19 a 5.1,5.1 0 0 1 -1.46,3.75 6.13,6.13 0 0 1 -4.51,1.54 q -3.46,0 -4.89,-1.26 a 0.77,0.77 0 0 1 -0.16,-0.56 c 0,-0.07 0,-0.6 0,-1.61 0,-1.01 0,-1.55 0,-1.62 0,-0.07 0.07,-0.18 0.19,-0.18 h 0.56 a 0.18,0.18 0 0 1 0.19,0.18 c 0,0.12 0,0.41 0.08,0.87 a 3.4,3.4 0 0 0 1.1,2.42 3.85,3.85 0 0 0 1.37,0.75 5.08,5.08 0 0 0 1.61,0.3 q 2.75,0 3.67,-1.83 a 4.8,4.8 0 0 0 0.41,-2.11 2.68,2.68 0 0 0 -0.78,-1.94 8.17,8.17 0 0 0 -3.06,-1.69 11.56,11.56 0 0 1 -3.52,-1.77 4.52,4.52 0 0 1 -1.39,-3.65 5,5 0 0 1 1.89,-3.94 5.62,5.62 0 0 1 3.79,-1.24 7.84,7.84 0 0 1 2.88,0.52 4.19,4.19 0 0 1 1.25,0.69 0.51,0.51 0 0 1 0.22,0.37 20.89,20.89 0 0 1 0.15,2.8 c 0,0.19 0,0.29 -0.08,0.29 h -0.66 c -0.07,0 -0.11,-0.06 -0.14,-0.16 -0.05,-0.27 -0.12,-0.61 -0.19,-1 a 2,2 0 0 0 -1,-1.37 6.32,6.32 0 0 0 -3.2,-0.8 3.53,3.53 0 0 0 -2.42,0.7 3.31,3.31 0 0 0 -0.83,2.57 2.83,2.83 0 0 0 0.77,2 4.44,4.44 0 0 0 1.44,0.88 l 1.79,0.73 c 1.18,0.52 1.88,0.83 2.09,1 a 6.35,6.35 0 0 1 1.74,1.36 4.59,4.59 0 0 1 1.06,3.17 z m 9.82,5 c 0,0.07 0,0.11 -0.08,0.11 h -6.67 c -0.08,0 -0.13,0 -0.15,0 a 0.17,0.17 0 0 1 0,-0.09 v -0.43 c 0,-0.08 0,-0.13 0,-0.15 h 0.1 1.87 c 0.13,0 0.19,-0.14 0.19,-0.4 V 255.5 q 0,-2.6 -0.48,-2.59 h -1.74 c -0.13,0 -0.19,0 -0.19,-0.14 v -0.48 c 0,-0.07 0,-0.11 0.14,-0.11 h 6.66 c 0.08,0 0.12,0 0.12,0.11 v 0.51 c 0,0.08 -0.05,0.11 -0.15,0.11 h -1.94 c -0.16,0 -0.25,0.09 -0.25,0.29 q 0,12.48 0,12.89 0,2 0,2.32 c 0.07,1.14 0.25,1.71 0.55,1.71 h 1.94 a 0.1,0.1 0 0 1 0.11,0.11 v 0.51 z m 19.08,-9.37 q 0,5.7 -3.8,8.24 a 7.85,7.85 0 0 1 -3.15,1.21 21.63,21.63 0 0 1 -3.15,0.16 c -0.65,0 -1.5,0 -2.54,-0.07 -1.04,-0.07 -1.9,-0.07 -2.59,-0.07 h -1.52 a 0.12,0.12 0 0 1 -0.14,-0.14 c 0,0 0,-0.09 0,-0.2 0,-0.11 0,-0.19 0,-0.25 0,-0.06 0.06,-0.14 0.16,-0.14 h 1.92 c 0.15,0 0.22,-0.15 0.22,-0.43 0,-0.28 0,-1.35 0,-3.62 0,-2.27 0,-3.52 0,-3.72 q 0,0 0,-3.38 0,-3 0,-3.3 c -0.05,-1.86 -0.23,-2.79 -0.51,-2.79 h -1.94 c -0.1,0 -0.15,0 -0.15,-0.14 v -0.45 c 0,-0.09 0.06,-0.14 0.18,-0.14 h 8.49 a 8.62,8.62 0 0 1 3.35,0.53 11.3,11.3 0 0 1 1.21,0.59 8.7,8.7 0 0 1 1.69,1.32 q 2.34,2.34 2.34,6.76 z m -1.91,1.86 a 10.56,10.56 0 0 0 -2.14,-6.81 8.28,8.28 0 0 0 -3.33,-2.61 10,10 0 0 0 -3.71,-0.76 5.49,5.49 0 0 0 -1.07,0.07 c -0.2,0 -0.3,0.23 -0.3,0.55 q 0,0.2 0,3.4 0,3.2 0,3.61 v 5.57 q 0,3.57 0.44,3.65 a 22.77,22.77 0 0 0 3.7,0.21 6.15,6.15 0 0 0 4.44,-1.5 7.08,7.08 0 0 0 2,-5.37 z m 18.43,5.66 c -0.26,0.52 -0.56,1.12 -0.92,1.8 a 0.34,0.34 0 0 1 -0.29,0.16 h -13 c -0.09,0 -0.14,-0.06 -0.14,-0.16 v -0.43 c 0,-0.09 0,-0.14 0.11,-0.14 h 2 c 0.18,0 0.28,-0.1 0.28,-0.29 0,-0.19 0,-1.49 0,-4.23 0,-2.74 0,-4.14 0,-4.23 0,-0.09 0,-1 0,-2.83 0,-1.83 0,-2.75 0,-2.86 q 0,-2.79 -0.53,-2.79 h -1.66 a 0.12,0.12 0 0 1 -0.14,-0.14 v -0.45 c 0,-0.09 0.06,-0.14 0.17,-0.14 h 12.27 0.67 0.4 c 0.12,0 0.16,0 0.14,0.14 q -0.19,0.76 -0.48,1.74 c -0.08,0.21 -0.15,0.32 -0.22,0.32 l -0.19,-0.21 a 3.1,3.1 0 0 0 -1.61,-0.7 50.85,50.85 0 0 0 -6.52,-0.33 0.23,0.23 0 0 0 -0.23,0.16 q -0.06,0.17 -0.06,6.81 c 0,0.18 0.08,0.28 0.23,0.28 h 6.72 a 0.21,0.21 0 0 0 0.23,-0.21 c 0,-0.14 0.06,-0.43 0.11,-0.88 0.05,-0.45 0.08,-0.69 0.09,-0.74 0.01,-0.05 0.06,-0.26 0.17,-0.26 h 0.2 c 0.11,0 0.17,0.08 0.17,0.23 0,0.15 0,0.42 -0.06,1.15 -0.06,0.73 -0.06,1.16 -0.06,1.3 0,0.14 0,0.62 0,1.44 0,0.82 0,1.27 0,1.32 0,0.05 -0.05,0.3 -0.15,0.3 h -0.22 c -0.09,0 -0.15,-0.07 -0.16,-0.19 0,-0.59 -0.08,-1.28 -0.14,-2.09 0,-0.18 -0.11,-0.28 -0.26,-0.28 l -3.39,-0.06 -3.33,-0.05 c -0.12,0 -0.18,0.08 -0.18,0.25 v 5.18 q 0,3.3 0.71,3.3 6.43,0 8.55,-1 l 0.61,-0.34 c 0.09,0 0.12,0.06 0.08,0.18 z M 186.1,252.7 c 0,0.11 0,0.16 -0.14,0.16 h -1.91 c -0.19,0 -0.29,0.12 -0.29,0.37 q 0,0.11 0,3.74 0,3.63 0,3.93 0,0.3 -0.06,4.91 c 0,3.08 -0.05,4.7 -0.05,4.86 0,0.43 -0.06,0.64 -0.17,0.64 a 0.37,0.37 0 0 1 -0.31,-0.16 q -1.25,-1.67 -7.4,-9.52 -2.19,-2.93 -5.14,-6.53 c -0.13,-0.11 -0.22,-0.07 -0.26,0.11 -0.04,0.18 -0.1,1.8 -0.21,5 -0.11,3.2 -0.15,5.34 -0.15,6.17 q 0,3.66 0.73,3.66 h 1.82 c 0.09,0 0.14,0 0.14,0.11 v 0.51 a 0.1,0.1 0 0 1 -0.11,0.11 h -5.4 c -0.12,0 -0.18,0 -0.18,-0.08 v -0.51 c 0,-0.09 0.06,-0.14 0.18,-0.14 h 1.69 c 0.15,0 0.22,-0.07 0.22,-0.21 v -2 q 0,-0.81 0.2,-6.58 0.2,-5.77 0.2,-5.88 0,-2.54 -1.74,-2.54 h -1 c -0.07,0 -0.11,0 -0.11,-0.14 v -0.45 c 0,-0.09 0,-0.14 0.14,-0.14 h 4.34 a 0.35,0.35 0 0 1 0.3,0.22 q 0.12,0.22 2.27,3.1 c 1.43,1.92 2.24,3 2.42,3.21 q 3.07,4.09 6.52,8.45 a 0.19,0.19 0 0 0 0.11,0 c 0.07,0 0.1,-0.13 0.12,-0.38 0.02,-0.25 0,-1.8 0,-4.86 0,-3.06 0,-4.74 0,-5 q -0.2,-4.05 -1,-4.05 H 180 c -0.12,0 -0.18,0 -0.18,-0.14 v -0.45 c 0,-0.09 0.05,-0.14 0.15,-0.14 h 6 c 0.11,0 0.16,0 0.16,0.11 v 0.45 z m 18.41,15.41 a 0.19,0.19 0 0 1 0,0.23 8.66,8.66 0 0 1 -3.41,2 14.09,14.09 0 0 1 -4.7,0.67 12.16,12.16 0 0 1 -3.8,-0.48 7.67,7.67 0 0 1 -2.8,-1.83 q -2.25,-2.19 -2.25,-6.66 a 10.75,10.75 0 0 1 1.29,-5 9,9 0 0 1 3.17,-3.4 12.87,12.87 0 0 1 7.13,-1.8 c 1.09,0 2.09,0 3,0.14 a 6.59,6.59 0 0 1 2,0.4 c 0.06,0 0.08,0.07 0.08,0.14 0,0.07 -0.05,0.53 -0.14,1.15 -0.09,0.62 -0.1,0.94 -0.14,1.32 0,0.11 -0.06,0.16 -0.11,0.16 a 0.13,0.13 0 0 1 -0.14,-0.12 1.53,1.53 0 0 0 -0.15,-0.38 4.17,4.17 0 0 0 -1.14,-0.95 9.9,9.9 0 0 0 -4.4,-0.7 7.74,7.74 0 0 0 -5.82,2.24 8.8,8.8 0 0 0 -2.45,6.36 8.44,8.44 0 0 0 2.58,6.56 7.23,7.23 0 0 0 2.64,1.62 11,11 0 0 0 3.22,0.38 6.78,6.78 0 0 0 2.9,-0.66 4.8,4.8 0 0 0 2.09,-1.71 3.14,3.14 0 0 0 0.47,-1.15 c 0,-0.16 0,-0.23 0.08,-0.23 0.08,0 0.07,0 0.09,0.12 a 3.54,3.54 0 0 0 0.3,0.87 c 0.09,0.21 0.21,0.46 0.37,0.75 z m 16.73,0.74 c -0.26,0.52 -0.56,1.12 -0.92,1.8 a 0.34,0.34 0 0 1 -0.29,0.16 H 207 c -0.09,0 -0.14,-0.06 -0.14,-0.16 v -0.43 c 0,-0.09 0,-0.14 0.11,-0.14 h 2 c 0.18,0 0.28,-0.1 0.28,-0.29 0,-0.19 0,-1.49 0,-4.23 0,-2.74 0,-4.14 0,-4.23 0,-0.09 0,-1 0,-2.83 0,-1.83 0,-2.75 0,-2.86 q 0,-2.79 -0.53,-2.79 H 207 a 0.12,0.12 0 0 1 -0.14,-0.14 v -0.45 c 0,-0.09 0.06,-0.14 0.17,-0.14 h 12.3 0.67 0.4 c 0.12,0 0.16,0 0.14,0.14 q -0.19,0.76 -0.48,1.74 c -0.08,0.21 -0.15,0.32 -0.22,0.32 l -0.19,-0.21 a 3.1,3.1 0 0 0 -1.61,-0.7 50.86,50.86 0 0 0 -6.52,-0.33 0.23,0.23 0 0 0 -0.23,0.16 q -0.06,0.17 -0.06,6.81 c 0,0.18 0.08,0.28 0.23,0.28 h 6.72 a 0.21,0.21 0 0 0 0.23,-0.21 c 0,-0.14 0.06,-0.43 0.11,-0.88 0.05,-0.45 0.08,-0.69 0.09,-0.74 0.01,-0.05 0.06,-0.26 0.17,-0.26 h 0.2 c 0.11,0 0.17,0.08 0.17,0.23 0,0.15 0,0.42 -0.06,1.15 -0.06,0.73 -0.06,1.16 -0.06,1.3 0,0.14 0,0.62 0,1.44 0,0.82 0,1.27 0,1.32 0,0.05 -0.05,0.3 -0.15,0.3 h -0.22 c -0.09,0 -0.15,-0.07 -0.16,-0.19 0,-0.59 -0.08,-1.28 -0.14,-2.09 0,-0.18 -0.11,-0.28 -0.26,-0.28 l -3.39,-0.06 -3.33,-0.05 c -0.12,0 -0.18,0.08 -0.18,0.25 v 5.18 q 0,3.3 0.71,3.3 6.43,0 8.55,-1 l 0.61,-0.34 c 0.18,-0.02 0.21,0.04 0.17,0.16 z"
           class="cls-3"
           inkscape:connector-curvature="0"
           style="fill:#000001;fill-opacity:1;fill-rule:evenodd" />
        <rect
           id="rect845"
           height="0.80000001"
           width="44.880001"
           y="261.20001"
           x="249.11"
           class="cls-5"
           style="fill:#000001;fill-opacity:1" />
        <rect
           id="rect847"
           height="0.80000001"
           width="44.880001"
           y="261.20001"
           class="cls-5"
           x="0"
           style="fill:#000001;fill-opacity:1" />
      </g>
    </g>
  </g>
</svg>
